<?xml version="1.0" encoding="utf-8"?>
<!-- Generator: Adobe Illustrator 25.2.3, SVG Export Plug-In . SVG Version: 6.00 Build 0)  -->
<svg version="1.1" id="Layer_1" xmlns="http://www.w3.org/2000/svg" xmlns:xlink="http://www.w3.org/1999/xlink" x="0px" y="0px"
	 viewBox="0 0 647.03 280.05" style="enable-background:new 0 0 647.03 280.05;" xml:space="preserve">
<style type="text/css">
	.st0{clip-path:url(#SVGID_2_);fill:#282727;}
</style>
<g>
	<defs>
		<rect id="SVGID_1_" x="29.59" y="45.22" width="579.87" height="187.79"/>
	</defs>
	<clipPath id="SVGID_2_">
		<use xlink:href="#SVGID_1_"  style="overflow:visible;"/>
	</clipPath>
	<path class="st0" d="M49.05,228.1H29.48V49.65h19.58V228.1z M276.2,228.1h-19.58v-62.32c0-2.22,0.01-4.44,0.03-6.66
		c0.11-16.32,0.21-31.74-5.43-45.93c-11.52-28.95-40.19-48.41-71.35-48.41c-12.66,0-25.21,3.15-36.28,9.1
		c-13.22,7.1-24.39,18.3-31.47,31.54c-8.36,15.66-9.01,31.63-9.01,52.49v70.18H83.53v-70.18c0-22.96,0.83-42.09,11.32-61.72
		c8.87-16.6,22.88-30.65,39.46-39.56c13.92-7.48,29.67-11.43,45.55-11.43c39.1,0,75.09,24.41,89.54,60.75
		c7.05,17.73,6.93,35.81,6.82,53.29c-0.01,2.18-0.03,4.36-0.03,6.53V228.1z M398.95,232.42c-51.61,0-93.6-41.99-93.6-93.6
		s41.99-93.6,93.6-93.6v19.58c-40.82,0-74.03,33.21-74.03,74.03c0,40.82,33.21,74.03,74.03,74.03V232.42z M515.59,64.79
		c-41,0-74.36,33.36-74.36,74.37c0,41,33.36,74.36,74.36,74.36s74.36-33.36,74.36-74.36C589.95,98.15,556.6,64.79,515.59,64.79
		 M515.59,233.1c-51.8,0-93.94-42.14-93.94-93.94c0-51.8,42.14-93.94,93.94-93.94s93.94,42.14,93.94,93.94
		C609.53,190.96,567.39,233.1,515.59,233.1"/>
</g>
</svg>
