<?xml version="1.0" encoding="utf-8"?>
<!-- Generator: Adobe Illustrator 25.2.3, SVG Export Plug-In . SVG Version: 6.00 Build 0)  -->
<svg version="1.1" id="Layer_1" xmlns="http://www.w3.org/2000/svg" xmlns:xlink="http://www.w3.org/1999/xlink" x="0px" y="0px"
	 viewBox="0 0 1080 1080" style="enable-background:new 0 0 1080 1080;" xml:space="preserve">
<style type="text/css">
	.st0{clip-path:url(#SVGID_2_);}
	.st1{}
	.st2{clip-path:url(#SVGID_4_);}
	.st3{clip-path:url(#SVGID_6_);}
	.st4{clip-path:url(#SVGID_8_);}
	.st5{clip-path:url(#SVGID_10_);}
	.st6{clip-path:url(#SVGID_12_);}
	.st7{clip-path:url(#SVGID_14_);}
</style>
<g>
	<defs>
		<rect id="SVGID_1_" x="6" y="2.46" width="1068" height="1075.08"/>
	</defs>
	<clipPath id="SVGID_2_">
		<use xlink:href="#SVGID_1_"  style="overflow:visible;"/>
	</clipPath>
	<path class="st0" d="M597.91,540.06c0,32.02-25.96,57.98-57.98,57.98c-32.02,0-57.98-25.96-57.98-57.98
		c0-32.02,25.96-57.98,57.98-57.98C571.95,482.08,597.91,508.04,597.91,540.06"/>
</g>
<polygon class="st1" points="123.74,203.19 135.9,188.72 240.62,276.49 228.49,290.92 "/>
<polygon class="st1" points="190.77,132.47 313.25,171.54 250.74,87.72 264.81,77.25 346.51,186.75 334.55,195.7 205.24,155.22 
	270.93,243.15 256.85,253.66 175.12,144.16 "/>
<g>
	<defs>
		<rect id="SVGID_3_" x="6" y="2.46" width="1068" height="1075.08"/>
	</defs>
	<clipPath id="SVGID_4_">
		<use xlink:href="#SVGID_3_"  style="overflow:visible;"/>
	</clipPath>
	<path class="st2" d="M371.65,156.71c-16.16-8.79-27.34-23.14-33.49-43.06c-6.2-19.85-5.14-38.04,3.13-54.44
		c8.28-16.43,21.54-27.49,39.73-33.18c18.24-5.65,34.2-5.06,47.96,1.88c13.73,6.91,23.89,18.83,30.51,35.65l-17.1,6.28
		c-4.59-12.24-11.88-21.02-21.88-26.47c-10.05-5.41-21.57-6.08-34.71-2c-13.37,4.15-22.87,12.35-28.4,24.51
		c-5.49,12.16-5.76,26.2-0.82,42.05c4.9,15.88,13.1,27.26,24.59,34.12c11.49,6.9,23.89,8.27,37.26,4.08
		c13.14-4.08,22.28-11.21,27.45-21.38c5.15-10.16,6.12-21.57,2.95-34.2l17.64-4.59c4.12,17.64,2.51,33.22-4.9,46.71
		c-7.34,13.53-20.16,23.1-38.36,28.75C404.99,167.14,387.8,165.53,371.65,156.71"/>
	<path class="st2" d="M594.62,114.94c9.18-9.49,14.11-22.63,14.86-39.38c0.74-16.74-3.02-30.28-11.33-40.59
		c-8.28-10.23-19.81-15.72-34.55-16.39c-14.71-0.66-26.67,3.77-35.92,13.38c-9.3,9.53-14.28,22.63-15.02,39.26
		c-0.75,16.63,3.05,30.08,11.45,40.48c8.35,10.35,19.92,15.88,34.59,16.51C573.43,128.82,585.4,124.43,594.62,114.94 M612.3,24.46
		c12.08,13.69,17.61,31.02,16.67,51.93c-0.94,20.99-7.96,37.73-21.22,50.32c-13.25,12.56-29.81,18.4-49.77,17.5
		c-19.92-0.87-35.89-8.16-47.93-21.89c-12.09-13.69-17.62-31.02-16.67-51.97c0.9-20.94,8-37.69,21.22-50.28
		c13.21-12.59,29.81-18.4,49.77-17.53C584.26,3.44,600.26,10.73,612.3,24.46"/>
	<path class="st2" d="M701.53,118.9l15.41,7.06c-5.18,10.98-6.04,21.1-2.47,30.35c3.57,9.34,10.59,16.75,20.99,22.36
		c9.06,4.87,17.18,6.83,24.43,5.92c7.18-0.9,12.51-4.59,16.04-11.09c2.9-5.49,3.33-10.71,1.33-15.65
		c-2.08-4.94-6.66-10.28-13.88-16.11l-21.45-17.42c-17.96-14.51-22.28-30.43-12.97-47.81c5.64-10.55,14.11-17.02,25.37-19.34
		c11.26-2.39,23.42,0,36.55,7.02c15.02,8.05,24.75,18.12,29.02,30.16c4.28,12.04,2.82,24.91-4.36,38.63L800,125.65
		c5.1-10.08,6.2-19.34,3.38-27.84c-2.87-8.47-9.22-15.38-19.18-20.71c-8.68-4.66-16.39-6.27-23.15-5.02
		c-6.78,1.29-11.96,5.33-15.57,12.08c-3.02,5.61-3.49,10.63-1.45,15.1c2.03,4.47,6.51,9.42,13.41,14.95l19.57,15.84
		c10.04,8.2,16.39,16.36,19.02,24.44c2.59,8.12,1.38,16.94-3.65,26.35c-5.84,10.82-14.59,17.14-26.35,18.86
		c-11.77,1.77-24.28-0.94-37.5-8.04c-15.18-8.12-25.41-18.71-30.55-31.84C692.78,146.67,693.96,133.06,701.53,118.9"/>
</g>
<polygon class="st1" points="825.7,261.74 812.4,248.72 897.11,162.28 861.62,127.49 872.56,116.35 957.44,199.54 946.5,210.68 
	910.41,175.3 "/>
<g>
	<defs>
		<rect id="SVGID_5_" x="6" y="2.46" width="1068" height="1075.08"/>
	</defs>
	<clipPath id="SVGID_6_">
		<use xlink:href="#SVGID_5_"  style="overflow:visible;"/>
	</clipPath>
	<path class="st3" d="M920.06,382.5c-12.67-4.78-22.87-14.55-30.71-29.22c-7.81-14.67-10.24-28.55-7.22-41.61
		c3.02-13.1,12.87-24.08,29.61-33.02l74.4-39.7l8.75,16.44l-74.6,39.85c-22.82,12.16-28.47,29.06-16.98,50.59
		c5.65,10.59,12.86,17.14,21.57,19.73c8.75,2.55,18.75,0.82,29.96-5.17l74.79-39.93l8.67,16.28l-74.44,39.69
		C947.32,385.28,932.69,387.28,920.06,382.5"/>
	<path class="st3" d="M943.44,439.96l4.54,29.14c2.51,16.43,9.07,28.32,19.57,35.69c10.47,7.38,24.01,9.81,40.59,7.21
		c16.55-2.54,28.75-8.94,36.51-19.14c7.77-10.19,10.43-23.53,7.89-39.96l-4.51-29.14L943.44,439.96z M925.35,423.64l135.04-20.86
		l7.53,48.86c3.3,21.27-0.08,39.07-10.16,53.38c-10.08,14.24-25.61,23.03-46.63,26.28c-20.98,3.25-38.48-0.43-52.39-10.98
		c-13.93-10.59-22.52-26.52-25.85-47.81L925.35,423.64z"/>
</g>
<rect x="995.66" y="514.37" transform="matrix(0.0913 -0.9958 0.9958 0.0913 333.1197 1530.407)" class="st1" width="18.91" height="136.62"/>
<g>
	<defs>
		<rect id="SVGID_7_" x="6" y="2.46" width="1068" height="1075.08"/>
	</defs>
	<clipPath id="SVGID_8_">
		<use xlink:href="#SVGID_7_"  style="overflow:visible;"/>
	</clipPath>
	<path class="st4" d="M931.67,713.62c6.47,11.53,17.57,20.08,33.46,25.57c15.81,5.53,29.88,5.8,42.08,0.78
		c12.24-4.98,20.79-14.43,25.66-28.4c4.86-13.88,4-26.66-2.47-38.27c-6.52-11.6-17.65-20.15-33.34-25.65
		c-15.69-5.45-29.69-5.68-42-0.62c-12.36,5.05-20.95,14.51-25.81,28.43C924.38,689.39,925.2,702.1,931.67,713.62 M1013.29,756.57
		c-16.59,7.61-34.78,7.96-54.6,1.06c-19.77-6.9-33.81-18.5-42.08-34.74c-8.28-16.32-9.06-33.84-2.51-52.67
		c6.55-18.86,18.16-32.08,34.71-39.69c16.6-7.61,34.83-7.96,54.6-1.06c19.8,6.91,33.84,18.48,42.08,34.75
		c8.23,16.31,9.1,33.84,2.51,52.7C1041.45,735.74,1029.88,748.96,1013.29,756.57"/>
</g>
<polygon class="st1" points="954.89,878.28 942.73,892.75 838.32,804.63 850.49,790.19 "/>
<polygon class="st1" points="887.7,948.76 765.3,909.3 827.58,993.31 813.46,1003.78 732.12,893.97 744.12,885.07 873.23,925.97 
	807.89,837.8 822.01,827.33 903.36,937.11 "/>
<g>
	<defs>
		<rect id="SVGID_9_" x="6" y="2.46" width="1068" height="1075.08"/>
	</defs>
	<clipPath id="SVGID_10_">
		<use xlink:href="#SVGID_9_"  style="overflow:visible;"/>
	</clipPath>
	<path class="st5" d="M706.86,923.89c16.16,8.86,27.26,23.26,33.34,43.18c6.16,19.88,5.02,38.04-3.3,54.44
		c-8.35,16.43-21.61,27.42-39.85,33.07c-18.24,5.61-34.2,4.94-47.93-2.08c-13.72-6.94-23.84-18.91-30.43-35.77l17.18-6.2
		c4.51,12.24,11.77,21.06,21.81,26.56c9.95,5.45,21.49,6.16,34.67,2.12c13.37-4.08,22.91-12.24,28.44-24.4
		c5.53-12.16,5.88-26.16,0.98-42.04c-4.87-15.89-13.02-27.34-24.47-34.24c-11.46-6.91-23.84-8.32-37.26-4.2
		c-13.1,4.04-22.28,11.14-27.49,21.3c-5.14,10.16-6.19,21.53-3.1,34.2l-17.61,4.55c-4.08-17.69-2.43-33.26,5.02-46.71
		c7.41-13.53,20.24-23.06,38.48-28.63C673.57,913.38,690.74,915.03,706.86,923.89"/>
	<path class="st5" d="M483.78,964.92c-9.21,9.49-14.2,22.59-15.06,39.34c-0.75,16.75,2.98,30.28,11.25,40.64
		c8.23,10.28,19.73,15.81,34.48,16.51c14.74,0.71,26.7-3.69,36-13.26c9.29-9.53,14.35-22.59,15.13-39.18
		c0.78-16.67-2.94-30.12-11.29-40.51c-8.32-10.39-19.85-15.96-34.6-16.63C504.99,951.11,493.03,955.46,483.78,964.92
		 M465.78,1055.32c-12.04-13.73-17.53-31.06-16.51-52c1.02-20.94,8.15-37.65,21.41-50.21c13.25-12.51,29.85-18.32,49.81-17.34
		c19.92,0.94,35.92,8.32,47.88,22.04c12.01,13.77,17.5,31.11,16.48,52.05c-0.98,20.94-8.12,37.65-21.37,50.23
		c-13.3,12.51-29.89,18.28-49.81,17.34C493.74,1076.5,477.74,1069.08,465.78,1055.32"/>
	<path class="st5" d="M376.94,960.52l-15.37-7.06c5.21-10.94,6.12-21.06,2.59-30.39c-3.57-9.26-10.55-16.75-20.94-22.4
		c-9.02-4.86-17.14-6.86-24.39-6c-7.18,0.9-12.55,4.55-16.09,11.06c-2.9,5.49-3.37,10.67-1.41,15.61
		c2.04,4.94,6.67,10.39,13.85,16.2l21.37,17.5c17.89,14.59,22.2,30.55,12.87,47.81c-5.73,10.58-14.2,17.02-25.49,19.29
		c-11.22,2.36-23.46-0.08-36.48-7.14c-15.06-8.12-24.67-18.2-28.95-30.28c-4.19-12.04-2.74-24.91,4.48-38.59l15.53,7.38
		c-5.14,10.04-6.28,19.34-3.49,27.84c2.78,8.47,9.18,15.41,19.1,20.71c8.67,4.71,16.36,6.44,23.14,5.18
		c6.79-1.34,11.93-5.33,15.61-12.08c3.02-5.61,3.53-10.59,1.49-15.06c-2.04-4.47-6.47-9.46-13.33-14.99l-19.53-15.96
		c-10-8.2-16.32-16.39-18.91-24.52c-2.59-8.07-1.37-16.9,3.77-26.31c5.8-10.83,14.59-17.06,26.4-18.79
		c11.72-1.68,24.28,1.02,37.46,8.2c15.14,8.16,25.33,18.83,30.43,31.97C385.81,932.79,384.55,946.44,376.94,960.52"/>
</g>
<polygon class="st1" points="253.24,817.29 266.5,830.43 181.47,916.56 216.85,951.46 205.87,962.53 121.27,879.1 132.25,867.97 
	168.22,903.46 "/>
<g>
	<defs>
		<rect id="SVGID_11_" x="6" y="2.46" width="1068" height="1075.08"/>
	</defs>
	<clipPath id="SVGID_12_">
		<use xlink:href="#SVGID_11_"  style="overflow:visible;"/>
	</clipPath>
	<path class="st6" d="M159.27,696.26c12.63,4.82,22.83,14.59,30.59,29.3c7.77,14.71,10.16,28.55,7.14,41.65
		c-3.1,13.1-13.02,24.04-29.73,32.9l-74.56,39.46l-8.75-16.48l74.75-39.57c22.87-12.11,28.6-28.94,17.18-50.56
		c-5.61-10.58-12.79-17.22-21.53-19.8c-8.7-2.55-18.71-0.86-29.93,5.1l-74.99,39.66l-8.63-16.27l74.6-39.5
		C132.02,693.36,146.65,691.39,159.27,696.26"/>
	<path class="st6" d="M136.09,638.72l-4.43-29.18c-2.51-16.43-8.94-28.35-19.45-35.77c-10.43-7.41-24-9.84-40.59-7.38
		c-16.59,2.51-28.79,8.86-36.59,19.02c-7.81,10.2-10.51,23.5-8,39.93l4.39,29.18L136.09,638.72z M154.09,655.04L19.02,675.51
		l-7.38-48.95c-3.22-21.26,0.24-39.06,10.36-53.3c10.12-14.23,25.68-22.98,46.7-26.16c20.99-3.17,38.48,0.55,52.36,11.22
		c13.89,10.58,22.43,26.55,25.65,47.84L154.09,655.04z"/>
</g>
<polygon class="st1" points="6,498.71 142.01,511.65 143.78,492.83 7.77,479.92 "/>
<g>
	<defs>
		<rect id="SVGID_13_" x="6" y="2.46" width="1068" height="1075.08"/>
	</defs>
	<clipPath id="SVGID_14_">
		<use xlink:href="#SVGID_13_"  style="overflow:visible;"/>
	</clipPath>
	<path class="st7" d="M148.76,365.08c-6.43-11.53-17.57-20.08-33.37-25.65c-15.81-5.61-29.85-5.92-42.08-0.94
		c-12.28,4.98-20.87,14.39-25.73,28.28c-4.91,13.93-4.16,26.71,2.35,38.32c6.47,11.65,17.53,20.24,33.26,25.77
		c15.64,5.49,29.65,5.77,41.96,0.78c12.35-5.02,21.02-14.48,25.89-28.35C155.94,389.36,155.2,376.62,148.76,365.08 M67.26,321.9
		c16.67-7.57,34.83-7.84,54.6-0.9c19.77,6.98,33.76,18.63,41.96,34.9c8.23,16.32,8.98,33.85,2.36,52.72
		c-6.59,18.78-18.24,32-34.83,39.53c-16.63,7.57-34.83,7.89-54.59,0.9c-19.8-6.98-33.81-18.63-41.96-34.95
		c-8.2-16.27-9.02-33.85-2.36-52.67C39.03,342.61,50.67,329.43,67.26,321.9"/>
</g>
</svg>
