<?xml version="1.0" encoding="utf-8"?>
<!-- Generator: Adobe Illustrator 25.2.3, SVG Export Plug-In . SVG Version: 6.00 Build 0)  -->
<svg version="1.1" id="Layer_1" xmlns="http://www.w3.org/2000/svg" xmlns:xlink="http://www.w3.org/1999/xlink" x="0px" y="0px"
	 viewBox="0 0 615.9 203.08" style="enable-background:new 0 0 615.9 203.08;" xml:space="preserve">

<g>
	<defs>
		<rect id="SVGID_1_" x="-13.28" y="2.72" width="938.19" height="303.83"/>
	</defs>
	<clipPath id="SVGID_2_">
		<use xlink:href="#SVGID_1_"  style="overflow:visible;"/>
	</clipPath>
	<path class="st0" d="M23.12,195.08H2.53V7.39h20.59V195.08z M262.03,195.08h-20.59v-65.55c0-2.34,0.01-4.67,0.03-7
		c0.11-17.17,0.22-33.38-5.71-48.3c-12.11-30.45-42.27-50.91-75.05-50.91c-13.32,0-26.51,3.31-38.16,9.57
		c-13.9,7.47-25.66,19.25-33.1,33.17c-8.8,16.47-9.48,33.27-9.48,55.21v73.81H59.38v-73.81c0-24.15,0.88-44.27,11.91-64.91
		c9.33-17.46,24.07-32.23,41.51-41.61C127.43,6.88,144,2.72,160.71,2.72c41.13,0,78.98,25.67,94.18,63.89
		c7.42,18.65,7.29,37.66,7.17,56.05c-0.01,2.29-0.03,4.58-0.03,6.87V195.08z M391.14,199.62c-54.29,0-98.45-44.16-98.45-98.45
		s44.16-98.45,98.45-98.45v20.59c-42.93,0-77.86,34.93-77.86,77.86c0,42.93,34.93,77.86,77.86,77.86V199.62z M513.82,23.31
		c-43.13,0-78.21,35.09-78.21,78.22c0,43.13,35.09,78.21,78.21,78.21s78.21-35.09,78.21-78.21
		C592.03,58.4,556.95,23.31,513.82,23.31 M513.82,200.33c-54.48,0-98.8-44.32-98.8-98.8c0-54.48,44.32-98.81,98.8-98.81
		s98.8,44.33,98.8,98.81C612.62,156.01,568.3,200.33,513.82,200.33"/>
</g>
</svg>
